<?xml version="1.0" encoding="utf-8"?>
<!-- Generator: Adobe Illustrator 15.1.0, SVG Export Plug-In . SVG Version: 6.00 Build 0)  -->
<!DOCTYPE svg PUBLIC "-//W3C//DTD SVG 1.1//EN" "http://www.w3.org/Graphics/SVG/1.1/DTD/svg11.dtd">
<svg version="1.1" id="Layer_1" xmlns="http://www.w3.org/2000/svg" xmlns:xlink="http://www.w3.org/1999/xlink" x="0px" y="0px"
	 width="215.8px" height="77px" viewBox="0 0 215.8 77" enable-background="new 0 0 215.8 77" xml:space="preserve">
<path fill="#FFFFFF" d="M209.3,51.8c-1.2,0.4-2.9,0.6-5,0.6h-10.6v-28H204c2.3,0,4.1,0.2,5.3,0.5c1.6,0.5,3.1,1.3,4.2,2.6
	c0.9,1,1.7,2.1,2.3,3.5V3.8h-69.4v20.6h20.2v4.7h-15.1v6.2h14.1v4.7h-14.1v7.6h15.6v4.7h-20.7v20.8h69.4V45.8
	c-0.7,1.5-1.5,2.7-2.5,3.7C212.3,50.5,211,51.3,209.3,51.8 M184.2,52.4c-0.1-0.4-0.3-0.9-0.5-1.6c-0.1-0.3-0.2-0.5-0.2-0.6
	c-0.9,0.9-1.9,1.6-2.9,2c-1,0.4-2.2,0.7-3.3,0.7c-2.1,0-3.7-0.6-4.9-1.7c-1.2-1.1-1.8-2.6-1.8-4.3c0-1.1,0.3-2.2,0.8-3.1
	c0.5-0.9,1.3-1.6,2.3-2.1c1-0.5,2.4-0.9,4.3-1.3c2.5-0.5,4.2-0.9,5.2-1.3v-0.5c0-1-0.3-1.8-0.8-2.2c-0.5-0.4-1.5-0.7-2.9-0.7
	c-1,0-1.7,0.2-2.2,0.6c-0.5,0.4-1,1-1.3,2l-4.9-0.9c0.5-2,1.5-3.4,2.8-4.4c1.3-0.9,3.3-1.4,6-1.4c2.4,0,4.2,0.3,5.4,0.9
	c1.2,0.6,2,1.3,2.5,2.2c0.5,0.9,0.7,2.5,0.7,4.8l-0.1,6.3c0,1.8,0.1,3.1,0.3,3.9c0.2,0.8,0.5,1.8,1,2.7L184.2,52.4L184.2,52.4
	L184.2,52.4z"/>
<path fill="#FFFFFF" d="M209.1,30.7c-0.7-0.6-1.6-1.1-2.6-1.3c-0.8-0.2-2.3-0.3-4.6-0.3h-2.5v18.6h4.2c1.6,0,2.7-0.1,3.4-0.3
	c0.9-0.2,1.7-0.6,2.3-1.2c0.6-0.5,1.1-1.4,1.5-2.7c0.4-1.3,0.6-3,0.6-5.1c0-2.2-0.2-3.8-0.6-5C210.3,32.3,209.8,31.4,209.1,30.7"/>
<path fill="#FFFFFF" d="M176.9,44.4c-0.7,0.5-1,1.1-1,1.9c0,0.8,0.3,1.4,0.8,1.9c0.6,0.5,1.3,0.8,2.1,0.8c1,0,1.9-0.3,2.8-1
	c0.6-0.5,1.1-1.1,1.3-1.8c0.1-0.5,0.2-1.3,0.2-2.6v-1.1c-0.7,0.2-1.8,0.5-3.3,0.8C178.3,43.8,177.3,44.1,176.9,44.4"/>
<rect x="121.8" y="52.5" fill="#FFFFFF" width="20.7" height="20.7"/>
<rect x="97.4" y="52.5" fill="#FFFFFF" width="20.7" height="20.7"/>
<rect x="73" y="52.5" fill="#FFFFFF" width="20.7" height="20.7"/>
<rect x="48.6" y="52.5" fill="#FFFFFF" width="20.7" height="20.7"/>
<rect x="24.4" y="52.5" fill="#FFFFFF" width="20.7" height="20.7"/>
<rect x="97.4" y="3.8" fill="#FFFFFF" width="45" height="45"/>
<rect x="73" y="28" fill="#FFFFFF" width="20.7" height="20.7"/>
<rect x="48.6" y="28" fill="#FFFFFF" width="20.7" height="20.7"/>
<rect x="24.4" y="28" fill="#FFFFFF" width="20.7" height="20.7"/>
<rect y="28" fill="#FFFFFF" width="20.7" height="20.7"/>
<rect x="73" y="3.8" fill="#FFFFFF" width="20.7" height="20.7"/>
<rect x="48.6" y="3.8" fill="#FFFFFF" width="20.7" height="20.7"/>
</svg>
