<?xml version="1.0" encoding="UTF-8"?>
<svg xmlns="http://www.w3.org/2000/svg" id="Layer_1" version="1.1" viewBox="0 0 200 57.2">
  <defs>
    <style>
      .st0 {
        fill: #fff;
      }
    </style>
  </defs>
  <g>
    <path class="st0" d="M28.82,40.26c.07.14.29.29.47.29h1.25c.18,0,.39-.14.47-.29h0l5.1-12.98h0c.32-.67.57-.64.57.11h0v7.95h0c0,.79-.43,1.39-.93,1.39s-.89.61-.89,1.39h0v3.28h8.66v-2.35l.04-.93h0c0-.78-.43-1.39-.93-1.39-.43,0-.75-.39-.89-.93h0v-13.23c0-.75.36-1.36.89-1.36.5,0,.93-.64.93-1.39h0v-3.64h-7.88l-5.88,14.12-5.88-14.12h-7.95v3.64h0c0,.75.39,1.39.89,1.39.53,0,.92.61.92,1.36h0v12.76h0c0,.79-.39,1.39-.92,1.39-.5,0-.89.61-.89,1.39h0l-.04,3.28h8.7v-3.28h0c0-.78-.39-1.39-.89-1.39s-.93-.61-.93-1.39h0v-7.95h0c0-.75.25-.78.57-.11h0l5.45,12.98h0Z"></path>
    <path class="st0" d="M29.85.11c15.69,0,28.49,12.8,28.49,28.49s-12.8,28.49-28.49,28.49S1.37,44.29,1.37,28.6,14.16.11,29.85.11h0ZM29.85,5.78c-12.55,0-22.82,10.23-22.82,22.82s10.27,22.82,22.82,22.82,22.82-10.27,22.82-22.82S42.44,5.78,29.85,5.78Z"></path>
  </g>
  <g>
    <path class="st0" d="M84.89,19.45h5.54v18.42h-3.59v-12.46c0-.36,0-.86.01-1.51,0-.65.01-1.14.01-1.49l-3.49,15.46h-3.74l-3.47-15.46c0,.35,0,.85.01,1.49,0,.65.01,1.15.01,1.51v12.46h-3.59v-18.42h5.6l3.35,14.49,3.33-14.49Z"></path>
    <path class="st0" d="M99.1,29.59c.66-.08,1.14-.19,1.42-.31.51-.22.77-.55.77-1.01,0-.56-.2-.94-.59-1.16s-.97-.32-1.73-.32c-.85,0-1.46.21-1.81.62-.25.31-.42.72-.51,1.25h-3.44c.08-1.19.41-2.17,1-2.94.95-1.2,2.57-1.8,4.87-1.8,1.5,0,2.83.3,3.99.89,1.16.59,1.74,1.71,1.74,3.35v6.25c0,.43,0,.96.02,1.57.02.47.1.78.21.95.12.17.29.3.52.41v.52h-3.87c-.11-.27-.18-.53-.22-.77-.04-.24-.07-.52-.1-.82-.49.53-1.06.99-1.71,1.36-.77.44-1.64.66-2.62.66-1.24,0-2.26-.35-3.07-1.06s-1.21-1.7-1.21-2.99c0-1.67.65-2.89,1.95-3.64.71-.41,1.76-.7,3.15-.87l1.22-.15ZM101.28,31.25c-.23.14-.46.26-.69.34s-.55.17-.96.24l-.81.15c-.76.13-1.31.3-1.64.49-.56.32-.84.83-.84,1.51,0,.61.17,1.05.51,1.32.34.27.76.41,1.25.41.78,0,1.5-.22,2.15-.67s1-1.27,1.02-2.46v-1.32Z"></path>
    <path class="st0" d="M116.09,29.14c-.07-.51-.24-.97-.51-1.37-.4-.55-1.02-.82-1.87-.82-1.2,0-2.03.6-2.47,1.79-.23.63-.35,1.47-.35,2.52s.12,1.8.35,2.41c.43,1.13,1.23,1.7,2.41,1.7.84,0,1.43-.22,1.78-.67.35-.45.56-1.03.64-1.75h3.64c-.08,1.08-.48,2.11-1.18,3.07-1.12,1.56-2.77,2.34-4.97,2.34s-3.81-.65-4.84-1.95c-1.03-1.3-1.55-2.99-1.55-5.06,0-2.34.57-4.16,1.71-5.46,1.14-1.3,2.72-1.95,4.73-1.95,1.71,0,3.11.38,4.2,1.15,1.09.77,1.73,2.12,1.93,4.06h-3.65Z"></path>
    <path class="st0" d="M122.14,19.51h3.5v9.94l4.49-5.14h4.43l-4.88,5.08,5.07,8.49h-4.34l-3.3-5.82-1.48,1.53v4.29h-3.5v-18.36Z"></path>
    <path class="st0" d="M145.29,24.53c.95.43,1.74,1.1,2.35,2.02.56.81.92,1.75,1.09,2.82.1.63.14,1.53.12,2.7h-9.92c.06,1.37.53,2.32,1.42,2.87.54.34,1.2.51,1.96.51.81,0,1.47-.21,1.98-.62.28-.22.52-.54.73-.94h3.64c-.1.81-.54,1.63-1.32,2.46-1.22,1.32-2.93,1.99-5.13,1.99-1.81,0-3.41-.56-4.8-1.68s-2.08-2.94-2.08-5.45c0-2.36.63-4.17,1.88-5.43,1.25-1.26,2.88-1.89,4.87-1.89,1.19,0,2.25.21,3.2.64ZM139.96,27.6c-.5.52-.82,1.22-.95,2.11h6.14c-.06-.95-.38-1.66-.95-2.15-.57-.49-1.27-.73-2.11-.73-.91,0-1.62.26-2.13.78Z"></path>
    <path class="st0" d="M161.63,25.03c.89.74,1.34,1.96,1.34,3.67v9.17h-3.65v-8.29c0-.72-.1-1.27-.29-1.65-.35-.7-1.01-1.05-1.99-1.05-1.2,0-2.02.51-2.47,1.54-.23.54-.35,1.23-.35,2.07v7.37h-3.56v-13.6h3.45v1.99c.46-.7.89-1.2,1.29-1.51.73-.55,1.66-.82,2.78-.82,1.4,0,2.55.37,3.44,1.11Z"></path>
    <path class="st0" d="M165.51,27.15v-2.9h10.77v2.96l-6.68,7.74h6.92v2.92h-11.49v-2.77l6.75-7.95h-6.28Z"></path>
    <path class="st0" d="M182.75,22.62h-3.61v-3.29h3.61v3.29ZM179.13,24.25h3.61v13.62h-3.61v-13.62Z"></path>
    <path class="st0" d="M195.07,24.53c.95.43,1.74,1.1,2.35,2.02.56.81.92,1.75,1.09,2.82.1.63.14,1.53.12,2.7h-9.92c.06,1.37.53,2.32,1.42,2.87.54.34,1.2.51,1.96.51.81,0,1.47-.21,1.98-.62.28-.22.52-.54.73-.94h3.64c-.1.81-.54,1.63-1.32,2.46-1.22,1.32-2.93,1.99-5.13,1.99-1.81,0-3.41-.56-4.8-1.68s-2.08-2.94-2.08-5.45c0-2.36.63-4.17,1.88-5.43,1.25-1.26,2.88-1.89,4.87-1.89,1.19,0,2.25.21,3.2.64ZM189.74,27.6c-.5.52-.82,1.22-.95,2.11h6.14c-.06-.95-.38-1.66-.95-2.15-.57-.49-1.27-.73-2.11-.73-.91,0-1.62.26-2.13.78Z"></path>
  </g>
</svg>
